<mxfile host="app.diagrams.net" modified="2023-11-05T10:19:17.505Z" agent="Mozilla/5.0 (Windows NT 10.0; Win64; x64) AppleWebKit/537.36 (KHTML, like Gecko) Chrome/119.0.0.0 Safari/537.36 Edg/119.0.0.0" etag="jnG6Ae5wrglBjZPQOmY-" version="22.0.8" type="github">
  <diagram name="第 1 页" id="EFEoGsRoaRf5TQKaCsUR">
    <mxGraphModel dx="1761" dy="1397" grid="1" gridSize="10" guides="1" tooltips="1" connect="1" arrows="1" fold="1" page="1" pageScale="1" pageWidth="827" pageHeight="1169" math="0" shadow="0">
      <root>
        <mxCell id="0" />
        <mxCell id="1" parent="0" />
        <mxCell id="38ShArqVPPciU-DoEeg5-1" value="&amp;lt;&amp;lt;Interface&amp;gt;&amp;gt;&lt;br&gt;Device63" style="swimlane;fontStyle=1;align=center;verticalAlign=top;childLayout=stackLayout;horizontal=1;startSize=40;horizontalStack=0;resizeParent=1;resizeParentMax=0;resizeLast=0;collapsible=1;marginBottom=0;whiteSpace=wrap;html=1;" vertex="1" parent="1">
          <mxGeometry x="380" y="426" width="250" height="74" as="geometry" />
        </mxCell>
        <mxCell id="38ShArqVPPciU-DoEeg5-3" value="" style="line;strokeWidth=1;fillColor=none;align=left;verticalAlign=middle;spacingTop=-1;spacingLeft=3;spacingRight=3;rotatable=0;labelPosition=right;points=[];portConstraint=eastwest;strokeColor=inherit;" vertex="1" parent="38ShArqVPPciU-DoEeg5-1">
          <mxGeometry y="40" width="250" height="8" as="geometry" />
        </mxCell>
        <mxCell id="38ShArqVPPciU-DoEeg5-4" value="+ beProduced(String name) : void" style="text;strokeColor=none;fillColor=none;align=left;verticalAlign=top;spacingLeft=4;spacingRight=4;overflow=hidden;rotatable=0;points=[[0,0.5],[1,0.5]];portConstraint=eastwest;whiteSpace=wrap;html=1;" vertex="1" parent="38ShArqVPPciU-DoEeg5-1">
          <mxGeometry y="48" width="250" height="26" as="geometry" />
        </mxCell>
        <mxCell id="38ShArqVPPciU-DoEeg5-5" value="&amp;lt;&amp;lt;Abstract&amp;gt;&amp;gt;&lt;br&gt;Manufacturer63" style="swimlane;fontStyle=1;align=center;verticalAlign=top;childLayout=stackLayout;horizontal=1;startSize=40;horizontalStack=0;resizeParent=1;resizeParentMax=0;resizeLast=0;collapsible=1;marginBottom=0;whiteSpace=wrap;html=1;" vertex="1" parent="1">
          <mxGeometry x="60" y="410" width="250" height="126" as="geometry" />
        </mxCell>
        <mxCell id="38ShArqVPPciU-DoEeg5-6" value="# device : Device63" style="text;strokeColor=none;fillColor=none;align=left;verticalAlign=top;spacingLeft=4;spacingRight=4;overflow=hidden;rotatable=0;points=[[0,0.5],[1,0.5]];portConstraint=eastwest;whiteSpace=wrap;html=1;" vertex="1" parent="38ShArqVPPciU-DoEeg5-5">
          <mxGeometry y="40" width="250" height="26" as="geometry" />
        </mxCell>
        <mxCell id="38ShArqVPPciU-DoEeg5-7" value="" style="line;strokeWidth=1;fillColor=none;align=left;verticalAlign=middle;spacingTop=-1;spacingLeft=3;spacingRight=3;rotatable=0;labelPosition=right;points=[];portConstraint=eastwest;strokeColor=inherit;" vertex="1" parent="38ShArqVPPciU-DoEeg5-5">
          <mxGeometry y="66" width="250" height="8" as="geometry" />
        </mxCell>
        <mxCell id="38ShArqVPPciU-DoEeg5-8" value="+ setDevice(Device63 device) : void" style="text;strokeColor=none;fillColor=none;align=left;verticalAlign=top;spacingLeft=4;spacingRight=4;overflow=hidden;rotatable=0;points=[[0,0.5],[1,0.5]];portConstraint=eastwest;whiteSpace=wrap;html=1;" vertex="1" parent="38ShArqVPPciU-DoEeg5-5">
          <mxGeometry y="74" width="250" height="26" as="geometry" />
        </mxCell>
        <mxCell id="38ShArqVPPciU-DoEeg5-25" value="+ product() : void" style="text;strokeColor=none;fillColor=none;align=left;verticalAlign=top;spacingLeft=4;spacingRight=4;overflow=hidden;rotatable=0;points=[[0,0.5],[1,0.5]];portConstraint=eastwest;whiteSpace=wrap;html=1;" vertex="1" parent="38ShArqVPPciU-DoEeg5-5">
          <mxGeometry y="100" width="250" height="26" as="geometry" />
        </mxCell>
        <mxCell id="38ShArqVPPciU-DoEeg5-9" value="Mi63" style="swimlane;fontStyle=1;align=center;verticalAlign=top;childLayout=stackLayout;horizontal=1;startSize=26;horizontalStack=0;resizeParent=1;resizeParentMax=0;resizeLast=0;collapsible=1;marginBottom=0;whiteSpace=wrap;html=1;" vertex="1" parent="1">
          <mxGeometry x="-90" y="620" width="160" height="60" as="geometry" />
        </mxCell>
        <mxCell id="38ShArqVPPciU-DoEeg5-11" value="" style="line;strokeWidth=1;fillColor=none;align=left;verticalAlign=middle;spacingTop=-1;spacingLeft=3;spacingRight=3;rotatable=0;labelPosition=right;points=[];portConstraint=eastwest;strokeColor=inherit;" vertex="1" parent="38ShArqVPPciU-DoEeg5-9">
          <mxGeometry y="26" width="160" height="8" as="geometry" />
        </mxCell>
        <mxCell id="38ShArqVPPciU-DoEeg5-12" value="+ product() : void" style="text;strokeColor=none;fillColor=none;align=left;verticalAlign=top;spacingLeft=4;spacingRight=4;overflow=hidden;rotatable=0;points=[[0,0.5],[1,0.5]];portConstraint=eastwest;whiteSpace=wrap;html=1;" vertex="1" parent="38ShArqVPPciU-DoEeg5-9">
          <mxGeometry y="34" width="160" height="26" as="geometry" />
        </mxCell>
        <mxCell id="38ShArqVPPciU-DoEeg5-21" value="AirConditioner63" style="swimlane;fontStyle=1;align=center;verticalAlign=top;childLayout=stackLayout;horizontal=1;startSize=26;horizontalStack=0;resizeParent=1;resizeParentMax=0;resizeLast=0;collapsible=1;marginBottom=0;whiteSpace=wrap;html=1;" vertex="1" parent="1">
          <mxGeometry x="690" y="426" width="200" height="60" as="geometry" />
        </mxCell>
        <mxCell id="38ShArqVPPciU-DoEeg5-23" value="" style="line;strokeWidth=1;fillColor=none;align=left;verticalAlign=middle;spacingTop=-1;spacingLeft=3;spacingRight=3;rotatable=0;labelPosition=right;points=[];portConstraint=eastwest;strokeColor=inherit;" vertex="1" parent="38ShArqVPPciU-DoEeg5-21">
          <mxGeometry y="26" width="200" height="8" as="geometry" />
        </mxCell>
        <mxCell id="38ShArqVPPciU-DoEeg5-24" value="+ beProduced(String name) : void" style="text;strokeColor=none;fillColor=none;align=left;verticalAlign=top;spacingLeft=4;spacingRight=4;overflow=hidden;rotatable=0;points=[[0,0.5],[1,0.5]];portConstraint=eastwest;whiteSpace=wrap;html=1;" vertex="1" parent="38ShArqVPPciU-DoEeg5-21">
          <mxGeometry y="34" width="200" height="26" as="geometry" />
        </mxCell>
        <mxCell id="38ShArqVPPciU-DoEeg5-26" value="Haier63" style="swimlane;fontStyle=1;align=center;verticalAlign=top;childLayout=stackLayout;horizontal=1;startSize=26;horizontalStack=0;resizeParent=1;resizeParentMax=0;resizeLast=0;collapsible=1;marginBottom=0;whiteSpace=wrap;html=1;" vertex="1" parent="1">
          <mxGeometry x="110" y="620" width="160" height="60" as="geometry" />
        </mxCell>
        <mxCell id="38ShArqVPPciU-DoEeg5-27" value="" style="line;strokeWidth=1;fillColor=none;align=left;verticalAlign=middle;spacingTop=-1;spacingLeft=3;spacingRight=3;rotatable=0;labelPosition=right;points=[];portConstraint=eastwest;strokeColor=inherit;" vertex="1" parent="38ShArqVPPciU-DoEeg5-26">
          <mxGeometry y="26" width="160" height="8" as="geometry" />
        </mxCell>
        <mxCell id="38ShArqVPPciU-DoEeg5-28" value="+ product() : void" style="text;strokeColor=none;fillColor=none;align=left;verticalAlign=top;spacingLeft=4;spacingRight=4;overflow=hidden;rotatable=0;points=[[0,0.5],[1,0.5]];portConstraint=eastwest;whiteSpace=wrap;html=1;" vertex="1" parent="38ShArqVPPciU-DoEeg5-26">
          <mxGeometry y="34" width="160" height="26" as="geometry" />
        </mxCell>
        <mxCell id="38ShArqVPPciU-DoEeg5-29" value="TCL63" style="swimlane;fontStyle=1;align=center;verticalAlign=top;childLayout=stackLayout;horizontal=1;startSize=26;horizontalStack=0;resizeParent=1;resizeParentMax=0;resizeLast=0;collapsible=1;marginBottom=0;whiteSpace=wrap;html=1;" vertex="1" parent="1">
          <mxGeometry x="280" y="620" width="160" height="60" as="geometry" />
        </mxCell>
        <mxCell id="38ShArqVPPciU-DoEeg5-30" value="" style="line;strokeWidth=1;fillColor=none;align=left;verticalAlign=middle;spacingTop=-1;spacingLeft=3;spacingRight=3;rotatable=0;labelPosition=right;points=[];portConstraint=eastwest;strokeColor=inherit;" vertex="1" parent="38ShArqVPPciU-DoEeg5-29">
          <mxGeometry y="26" width="160" height="8" as="geometry" />
        </mxCell>
        <mxCell id="38ShArqVPPciU-DoEeg5-31" value="+ product() : void" style="text;strokeColor=none;fillColor=none;align=left;verticalAlign=top;spacingLeft=4;spacingRight=4;overflow=hidden;rotatable=0;points=[[0,0.5],[1,0.5]];portConstraint=eastwest;whiteSpace=wrap;html=1;" vertex="1" parent="38ShArqVPPciU-DoEeg5-29">
          <mxGeometry y="34" width="160" height="26" as="geometry" />
        </mxCell>
        <mxCell id="38ShArqVPPciU-DoEeg5-32" value="Television63" style="swimlane;fontStyle=1;align=center;verticalAlign=top;childLayout=stackLayout;horizontal=1;startSize=26;horizontalStack=0;resizeParent=1;resizeParentMax=0;resizeLast=0;collapsible=1;marginBottom=0;whiteSpace=wrap;html=1;" vertex="1" parent="1">
          <mxGeometry x="690" y="295" width="210" height="60" as="geometry" />
        </mxCell>
        <mxCell id="38ShArqVPPciU-DoEeg5-33" value="" style="line;strokeWidth=1;fillColor=none;align=left;verticalAlign=middle;spacingTop=-1;spacingLeft=3;spacingRight=3;rotatable=0;labelPosition=right;points=[];portConstraint=eastwest;strokeColor=inherit;" vertex="1" parent="38ShArqVPPciU-DoEeg5-32">
          <mxGeometry y="26" width="210" height="8" as="geometry" />
        </mxCell>
        <mxCell id="38ShArqVPPciU-DoEeg5-34" value="+ beProduced(String name) : void" style="text;strokeColor=none;fillColor=none;align=left;verticalAlign=top;spacingLeft=4;spacingRight=4;overflow=hidden;rotatable=0;points=[[0,0.5],[1,0.5]];portConstraint=eastwest;whiteSpace=wrap;html=1;" vertex="1" parent="38ShArqVPPciU-DoEeg5-32">
          <mxGeometry y="34" width="210" height="26" as="geometry" />
        </mxCell>
        <mxCell id="38ShArqVPPciU-DoEeg5-35" value="MobilePhone63" style="swimlane;fontStyle=1;align=center;verticalAlign=top;childLayout=stackLayout;horizontal=1;startSize=26;horizontalStack=0;resizeParent=1;resizeParentMax=0;resizeLast=0;collapsible=1;marginBottom=0;whiteSpace=wrap;html=1;" vertex="1" parent="1">
          <mxGeometry x="690" y="560" width="210" height="60" as="geometry" />
        </mxCell>
        <mxCell id="38ShArqVPPciU-DoEeg5-36" value="" style="line;strokeWidth=1;fillColor=none;align=left;verticalAlign=middle;spacingTop=-1;spacingLeft=3;spacingRight=3;rotatable=0;labelPosition=right;points=[];portConstraint=eastwest;strokeColor=inherit;" vertex="1" parent="38ShArqVPPciU-DoEeg5-35">
          <mxGeometry y="26" width="210" height="8" as="geometry" />
        </mxCell>
        <mxCell id="38ShArqVPPciU-DoEeg5-37" value="+ beProduced(String name) : void" style="text;strokeColor=none;fillColor=none;align=left;verticalAlign=top;spacingLeft=4;spacingRight=4;overflow=hidden;rotatable=0;points=[[0,0.5],[1,0.5]];portConstraint=eastwest;whiteSpace=wrap;html=1;" vertex="1" parent="38ShArqVPPciU-DoEeg5-35">
          <mxGeometry y="34" width="210" height="26" as="geometry" />
        </mxCell>
        <mxCell id="38ShArqVPPciU-DoEeg5-39" style="edgeStyle=orthogonalEdgeStyle;rounded=0;orthogonalLoop=1;jettySize=auto;html=1;exitX=0.5;exitY=0;exitDx=0;exitDy=0;entryX=0.234;entryY=1.015;entryDx=0;entryDy=0;entryPerimeter=0;endArrow=block;endFill=0;startSize=11;endSize=11;" edge="1" parent="1" source="38ShArqVPPciU-DoEeg5-9" target="38ShArqVPPciU-DoEeg5-25">
          <mxGeometry relative="1" as="geometry" />
        </mxCell>
        <mxCell id="38ShArqVPPciU-DoEeg5-41" style="edgeStyle=orthogonalEdgeStyle;rounded=0;orthogonalLoop=1;jettySize=auto;html=1;exitX=0.5;exitY=0;exitDx=0;exitDy=0;entryX=0.764;entryY=0.974;entryDx=0;entryDy=0;entryPerimeter=0;endArrow=block;endFill=0;startSize=11;endSize=11;" edge="1" parent="1" source="38ShArqVPPciU-DoEeg5-29" target="38ShArqVPPciU-DoEeg5-25">
          <mxGeometry relative="1" as="geometry" />
        </mxCell>
        <mxCell id="38ShArqVPPciU-DoEeg5-44" value="" style="endArrow=block;html=1;rounded=0;exitX=0.518;exitY=0.013;exitDx=0;exitDy=0;endSize=11;endFill=0;entryX=0.554;entryY=1.016;entryDx=0;entryDy=0;entryPerimeter=0;exitPerimeter=0;" edge="1" parent="1" source="38ShArqVPPciU-DoEeg5-26" target="38ShArqVPPciU-DoEeg5-25">
          <mxGeometry width="50" height="50" relative="1" as="geometry">
            <mxPoint x="131.68" y="623.48" as="sourcePoint" />
            <mxPoint x="130" y="536" as="targetPoint" />
          </mxGeometry>
        </mxCell>
        <mxCell id="38ShArqVPPciU-DoEeg5-45" style="edgeStyle=orthogonalEdgeStyle;rounded=0;orthogonalLoop=1;jettySize=auto;html=1;exitX=1;exitY=0.5;exitDx=0;exitDy=0;entryX=0;entryY=0.5;entryDx=0;entryDy=0;endArrow=open;endFill=0;endSize=11;startSize=11;startArrow=diamondThin;startFill=0;" edge="1" parent="1" source="38ShArqVPPciU-DoEeg5-6" target="38ShArqVPPciU-DoEeg5-1">
          <mxGeometry relative="1" as="geometry" />
        </mxCell>
        <mxCell id="38ShArqVPPciU-DoEeg5-46" style="edgeStyle=orthogonalEdgeStyle;rounded=0;orthogonalLoop=1;jettySize=auto;html=1;exitX=0;exitY=0.5;exitDx=0;exitDy=0;entryX=0.855;entryY=0.019;entryDx=0;entryDy=0;entryPerimeter=0;endArrow=block;endFill=0;startSize=11;endSize=11;dashed=1;" edge="1" parent="1" source="38ShArqVPPciU-DoEeg5-32" target="38ShArqVPPciU-DoEeg5-1">
          <mxGeometry relative="1" as="geometry">
            <mxPoint x="574" y="420" as="targetPoint" />
          </mxGeometry>
        </mxCell>
        <mxCell id="38ShArqVPPciU-DoEeg5-48" style="edgeStyle=orthogonalEdgeStyle;rounded=0;orthogonalLoop=1;jettySize=auto;html=1;exitX=0;exitY=0.5;exitDx=0;exitDy=0;entryX=0.886;entryY=1.027;entryDx=0;entryDy=0;entryPerimeter=0;endArrow=block;endFill=0;endSize=11;dashed=1;" edge="1" parent="1" source="38ShArqVPPciU-DoEeg5-37" target="38ShArqVPPciU-DoEeg5-4">
          <mxGeometry relative="1" as="geometry" />
        </mxCell>
        <mxCell id="38ShArqVPPciU-DoEeg5-53" style="edgeStyle=orthogonalEdgeStyle;rounded=0;orthogonalLoop=1;jettySize=auto;html=1;exitX=0.5;exitY=1;exitDx=0;exitDy=0;entryX=0.5;entryY=0;entryDx=0;entryDy=0;dashed=1;endArrow=open;endFill=0;endSize=11;" edge="1" parent="1" source="38ShArqVPPciU-DoEeg5-49" target="38ShArqVPPciU-DoEeg5-5">
          <mxGeometry relative="1" as="geometry" />
        </mxCell>
        <mxCell id="38ShArqVPPciU-DoEeg5-49" value="Client" style="swimlane;fontStyle=1;align=center;verticalAlign=top;childLayout=stackLayout;horizontal=1;startSize=26;horizontalStack=0;resizeParent=1;resizeParentMax=0;resizeLast=0;collapsible=1;marginBottom=0;whiteSpace=wrap;html=1;" vertex="1" parent="1">
          <mxGeometry x="105" y="261" width="160" height="34" as="geometry" />
        </mxCell>
        <mxCell id="38ShArqVPPciU-DoEeg5-51" value="" style="line;strokeWidth=1;fillColor=none;align=left;verticalAlign=middle;spacingTop=-1;spacingLeft=3;spacingRight=3;rotatable=0;labelPosition=right;points=[];portConstraint=eastwest;strokeColor=inherit;" vertex="1" parent="38ShArqVPPciU-DoEeg5-49">
          <mxGeometry y="26" width="160" height="8" as="geometry" />
        </mxCell>
        <mxCell id="38ShArqVPPciU-DoEeg5-55" style="edgeStyle=orthogonalEdgeStyle;rounded=0;orthogonalLoop=1;jettySize=auto;html=1;entryX=0.987;entryY=0.395;entryDx=0;entryDy=0;entryPerimeter=0;endArrow=block;endFill=0;endSize=11;dashed=1;" edge="1" parent="1" source="38ShArqVPPciU-DoEeg5-23" target="38ShArqVPPciU-DoEeg5-1">
          <mxGeometry relative="1" as="geometry" />
        </mxCell>
      </root>
    </mxGraphModel>
  </diagram>
</mxfile>
